<?xml version="1.0" standalone="no"?>
<!DOCTYPE svg PUBLIC "-//W3C//DTD SVG 20010904//EN"
 "http://www.w3.org/TR/2001/REC-SVG-20010904/DTD/svg10.dtd">
<svg version="1.0" xmlns="http://www.w3.org/2000/svg"
 width="400.000000pt" height="400.000000pt" viewBox="0 0 400.000000 400.000000"
 preserveAspectRatio="xMidYMid meet">

<g transform="translate(0.000000,400.000000) scale(0.100000,-0.100000)"
fill="#000000" stroke="none">
<path d="M1990 3388 c0 -349 4 -578 9 -578 5 0 12 24 15 53 37 386 51 470 107
654 29 97 31 109 20 161 -13 66 -78 202 -121 252 l-29 35 -1 -577z"/>
<path d="M1874 3773 c-40 -85 -43 -162 -10 -240 14 -34 26 -70 26 -79 0 -8 6
-14 13 -11 9 3 12 51 13 191 0 103 -3 189 -7 192 -4 2 -20 -22 -35 -53z"/>
<path d="M1490 3617 c0 -142 1 -147 23 -158 12 -7 56 -45 98 -86 43 -41 79
-70 82 -66 8 12 10 170 4 261 -4 58 -11 80 -31 107 -33 43 -87 76 -136 82
l-40 6 0 -146z"/>
<path d="M2395 3741 c-122 -56 -225 -254 -275 -534 -27 -147 -47 -393 -35
-413 19 -30 28 -18 42 51 54 263 178 494 318 591 l55 37 0 144 0 143 -32 0
c-18 0 -51 -9 -73 -19z"/>
<path d="M2660 3449 c-221 -43 -390 -272 -470 -635 -18 -85 -18 -90 -2 -106
17 -17 19 -15 46 50 105 245 275 432 420 461 29 6 34 14 74 114 24 59 40 112
37 117 -7 12 -42 11 -105 -1z"/>
<path d="M1230 3401 c11 -28 29 -75 41 -103 26 -66 36 -78 63 -78 12 0 53 -16
92 -35 38 -19 74 -35 79 -35 6 0 10 36 9 90 0 109 -13 130 -99 175 -45 23 -74
31 -132 33 l-74 4 21 -51z"/>
<path d="M1185 3125 c-27 -13 -59 -31 -69 -39 -18 -15 -18 -16 7 -48 90 -116
99 -122 181 -133 50 -7 80 -7 86 -1 7 7 11 5 12 -4 1 -8 4 26 8 75 5 79 3 94
-14 119 -39 58 -128 72 -211 31z"/>
<path d="M2612 3130 c-92 -42 -207 -180 -294 -355 -60 -120 -62 -128 -40 -155
l19 -24 38 60 c87 136 230 235 359 249 l65 7 65 79 66 78 -33 25 c-76 58 -167
72 -245 36z"/>
<path d="M1178 2826 c-41 -11 -128 -59 -128 -71 0 -2 27 -24 60 -50 l59 -46
63 11 c35 6 72 12 83 13 15 2 20 11 22 40 2 23 -1 37 -8 37 -7 0 -5 8 6 19 17
19 16 21 -16 40 -38 24 -73 25 -141 7z"/>
<path d="M2625 2820 c-91 -36 -201 -139 -265 -247 -16 -28 -17 -33 -3 -52 14
-21 15 -21 70 29 31 28 83 66 117 83 58 30 67 32 171 32 l110 1 58 43 c66 50
65 54 -20 96 -77 37 -168 43 -238 15z"/>
<path d="M1990 2701 c0 -35 3 -39 33 -45 45 -9 148 -119 233 -248 37 -57 71
-107 75 -111 5 -7 41 4 57 19 8 6 -84 151 -139 217 -90 109 -211 207 -254 207
-3 0 -5 -17 -5 -39z"/>
<path d="M1190 2579 c-25 -11 -62 -36 -82 -56 l-37 -36 56 -61 c31 -34 62 -59
67 -57 6 2 33 9 60 17 27 7 54 18 59 23 13 13 26 161 14 161 -5 0 -15 7 -23
15 -21 20 -60 18 -114 -6z"/>
<path d="M1990 2328 l0 -278 55 0 56 0 18 43 c26 61 65 103 116 124 25 10 45
23 45 29 0 20 -49 61 -80 68 -17 3 -44 3 -62 -1 l-32 -6 22 35 c12 19 22 49
22 67 0 30 -1 31 -45 31 -36 0 -45 3 -45 18 0 36 -22 93 -45 119 l-24 28 -1
-277z"/>
<path d="M2582 2570 c-34 -16 -87 -52 -117 -81 l-54 -51 21 -43 21 -43 41 15
c61 22 201 28 258 10 l46 -14 56 56 c31 31 56 62 56 68 0 6 -17 25 -37 43 -87
77 -185 90 -291 40z"/>
<path d="M1714 2508 c-25 -34 -61 -91 -81 -126 -35 -62 -35 -65 -18 -78 21
-16 45 -18 45 -6 0 5 23 47 51 93 68 111 91 158 84 169 -14 22 -37 7 -81 -52z"/>
<path d="M2583 2309 c-122 -15 -269 -121 -332 -238 -44 -83 -84 -239 -85 -333
-1 -42 4 -81 9 -87 6 -6 34 -8 73 -3 l64 7 3 91 c6 155 42 258 117 340 155
168 422 102 421 -104 0 -150 -130 -245 -251 -183 -46 23 -72 67 -72 118 0 65
52 113 121 113 l31 0 -35 -39 c-45 -50 -53 -75 -33 -106 31 -46 109 -41 142
11 23 35 23 113 0 149 -51 78 -206 70 -266 -14 -28 -40 -45 -125 -36 -183 10
-64 59 -135 120 -173 42 -26 61 -31 130 -33 l81 -4 2 -65 c3 -74 24 -149 55
-188 71 -91 262 -94 342 -6 28 31 46 111 36 157 -15 66 -80 109 -134 88 -13
-5 -12 -10 5 -37 27 -45 24 -81 -10 -119 -53 -59 -134 -34 -162 49 -14 43 1
113 40 191 47 94 64 165 59 252 -13 230 -199 378 -435 349z"/>
<path d="M1208 2297 c-101 -38 -168 -98 -212 -192 -60 -126 -52 -253 27 -410
21 -42 31 -80 35 -125 4 -60 2 -68 -22 -97 -14 -17 -38 -33 -53 -36 -35 -7
-88 15 -102 41 -17 33 -13 87 9 115 l21 26 -26 7 c-58 14 -106 -18 -126 -86
-41 -135 99 -256 254 -221 116 26 166 94 175 239 l5 82 69 0 c155 0 260 100
262 249 1 129 -70 211 -181 211 -91 0 -147 -57 -140 -143 7 -81 64 -121 132
-93 49 21 49 66 -1 124 l-36 42 27 0 c41 0 89 -27 109 -61 49 -84 -28 -189
-139 -189 -102 0 -187 114 -171 230 19 144 181 213 331 142 130 -62 204 -211
205 -409 0 -45 3 -84 8 -86 4 -2 35 -7 69 -11 l61 -7 12 37 c23 68 -32 311
-93 413 -43 72 -128 148 -207 185 -57 27 -78 31 -165 33 -66 2 -112 -1 -137
-10z"/>
<path d="M1764 2300 c-23 -9 -54 -47 -54 -66 0 -7 14 -17 32 -23 17 -6 46 -22
64 -36 38 -29 44 -22 44 59 0 72 -25 91 -86 66z"/>
<path d="M1990 1915 c0 -41 4 -75 9 -75 30 0 45 86 22 128 -21 40 -31 23 -31
-53z"/>
<path d="M1954 1934 c-3 -19 -2 -45 4 -57 9 -18 11 -12 11 36 1 65 -5 74 -15
21z"/>
<path d="M1935 1738 c-41 -36 -70 -87 -80 -142 -7 -36 -9 -38 -39 -32 -93 18
-157 18 -201 2 -76 -29 -125 -105 -125 -194 l0 -33 25 19 c67 53 185 49 265
-9 l40 -29 170 0 170 0 50 34 c94 65 190 68 261 8 l32 -27 -6 58 c-7 76 -41
135 -92 161 -43 23 -143 28 -221 13 l-41 -8 -22 61 c-26 69 -95 150 -129 150
-12 0 -37 -14 -57 -32z"/>
<path d="M190 1136 l0 -46 425 0 c277 0 425 3 425 10 0 6 14 10 30 10 22 0 30
5 30 18 -1 48 10 46 -465 50 l-445 4 0 -46z"/>
<path d="M2000 1135 l0 -45 895 0 895 0 0 45 0 45 -895 0 -895 0 0 -45z"/>
<path d="M562 658 c-45 -145 -82 -266 -82 -270 0 -5 19 -8 43 -8 l43 0 19 63
20 62 89 0 90 0 20 -62 20 -63 47 0 46 0 -87 268 -88 267 -48 3 -49 2 -83
-262z m162 48 c37 -118 37 -116 -34 -116 -33 0 -60 1 -60 3 0 4 49 168 55 185
2 6 6 12 9 12 2 0 15 -38 30 -84z"/>
<path d="M970 650 l0 -270 40 0 40 0 2 178 3 177 90 -177 90 -178 42 0 43 0 0
270 0 270 -40 0 -40 0 0 -177 -1 -178 -92 177 -92 178 -42 0 -43 0 0 -270z"/>
<path d="M1390 880 l0 -40 65 0 65 0 0 -230 0 -230 45 0 45 0 0 230 0 230 65
0 65 0 0 40 0 40 -175 0 -175 0 0 -40z"/>
<path d="M1800 650 l0 -270 170 0 170 0 0 45 0 45 -125 0 -125 0 0 75 0 75
110 0 110 0 0 45 0 45 -110 0 -110 0 0 65 0 65 120 0 120 0 0 40 0 40 -165 0
-165 0 0 -270z"/>
<path d="M2220 650 l0 -270 45 0 45 0 0 115 0 115 90 0 90 0 0 45 0 45 -90 0
-90 0 0 70 0 70 105 0 105 0 0 40 0 40 -150 0 -150 0 0 -270z"/>
<path d="M2600 650 l0 -270 40 0 40 0 0 270 0 270 -40 0 -40 0 0 -270z"/>
<path d="M2816 793 l67 -126 -36 -71 c-20 -39 -54 -104 -76 -143 l-40 -73 52
0 52 0 49 92 c56 105 50 106 114 -19 l37 -73 53 0 53 0 -53 97 c-29 54 -63
119 -77 144 l-24 45 66 122 c37 66 67 123 67 126 0 4 -21 6 -47 6 l-48 0 -44
-81 -44 -82 -44 82 -45 81 -50 0 -50 0 68 -127z"/>
<path d="M3190 650 l0 -270 170 0 170 0 0 45 0 45 -125 0 -125 0 0 75 0 75
110 0 110 0 0 45 0 45 -110 0 -110 0 0 65 0 65 120 0 120 0 0 40 0 40 -165 0
-165 0 0 -270z"/>
<path d="M480 170 l0 -90 56 0 c34 0 53 4 49 10 -3 6 -26 10 -51 10 -42 0 -44
1 -44 30 0 28 2 30 39 30 22 0 43 5 46 10 4 6 -12 10 -39 10 -44 0 -46 1 -46
30 0 29 2 30 45 30 25 0 45 5 45 10 0 6 -22 10 -50 10 l-50 0 0 -90z"/>
<path d="M1534 252 c-38 -25 -46 -115 -14 -150 23 -24 78 -30 98 -10 7 7 12
27 12 45 0 30 -3 33 -30 33 -16 0 -30 -4 -30 -10 0 -5 11 -10 25 -10 35 0 34
-37 -1 -50 -32 -13 -61 2 -75 38 -26 69 47 150 83 92 13 -21 28 -27 28 -11 0
31 -66 53 -96 33z"/>
<path d="M1707 253 c-4 -3 -7 -11 -7 -17 0 -6 5 -5 12 2 6 6 9 14 7 17 -3 3
-9 2 -12 -2z"/>
<path d="M1936 245 c-3 -8 -1 -15 3 -15 5 0 11 7 15 15 3 8 1 15 -3 15 -5 0
-11 -7 -15 -15z"/>
<path d="M2214 170 c0 -52 1 -74 3 -47 2 26 2 68 0 95 -2 26 -3 4 -3 -48z"/>
<path d="M2500 231 c0 -24 -3 -28 -23 -24 -41 8 -68 -52 -44 -97 9 -18 21 -25
45 -26 l32 -1 0 89 c0 48 -2 88 -5 88 -3 0 -5 -13 -5 -29z m-12 -43 c17 -17
15 -73 -3 -88 -34 -28 -65 56 -33 88 15 15 21 15 36 0z"/>
<path d="M2730 170 l0 -90 39 0 c61 0 94 48 56 80 -11 9 -13 16 -5 24 14 14
13 49 -2 64 -7 7 -29 12 -50 12 l-38 0 0 -90z m83 58 c8 -24 -13 -48 -43 -48
-27 0 -30 3 -30 30 0 27 3 30 34 30 19 0 36 -6 39 -12z m-9 -71 c31 -22 16
-52 -27 -55 -35 -3 -37 -2 -37 26 0 16 3 32 7 35 10 11 38 8 57 -6z"/>
<path d="M2890 245 c-8 -9 -8 -15 -2 -15 6 0 13 6 16 13 5 10 7 10 12 0 3 -7
10 -13 16 -13 6 0 6 6 -2 15 -7 8 -16 15 -20 15 -4 0 -13 -7 -20 -15z"/>
<path d="M3040 250 c0 -5 5 -10 10 -10 6 0 10 5 10 10 0 6 -4 10 -10 10 -5 0
-10 -4 -10 -10z"/>
<path d="M741 233 c0 -13 -6 -23 -13 -23 -9 0 -9 -3 0 -12 7 -7 12 -36 12 -65
0 -43 3 -53 17 -53 13 0 14 3 5 12 -16 16 -16 90 0 106 9 9 9 12 1 12 -7 0
-14 10 -16 23 l-4 22 -2 -22z"/>
<path d="M2989 230 c-2 -14 -2 -53 -1 -88 3 -49 7 -62 20 -62 12 0 13 3 4 12
-16 16 -16 90 0 106 9 9 9 12 1 12 -7 0 -13 10 -15 23 -4 21 -4 21 -9 -3z"/>
<path d="M3511 233 c0 -13 -6 -23 -13 -23 -9 0 -9 -3 0 -12 7 -7 12 -36 12
-65 0 -43 3 -53 17 -53 13 0 14 3 5 12 -16 16 -16 108 1 108 8 0 9 2 1 8 -7 4
-14 16 -17 27 -4 18 -5 18 -6 -2z"/>
<path d="M622 140 c2 -62 2 -62 5 -13 7 96 61 95 65 -1 l1 -51 4 44 c7 74 -2
92 -42 89 l-35 -2 2 -66z"/>
<path d="M790 143 c0 -36 4 -63 10 -63 6 0 10 25 10 55 0 41 4 55 14 55 8 0
17 4 21 10 3 5 -7 8 -25 7 -30 -2 -30 -2 -30 -64z"/>
<path d="M872 198 c-16 -16 -16 -90 0 -106 15 -15 51 -15 66 0 19 19 14 33 -6
15 -24 -22 -39 -21 -52 2 -15 29 -13 31 30 31 35 0 40 3 40 23 0 29 -18 47
-45 47 -12 0 -26 -5 -33 -12z m58 -13 c15 -19 5 -35 -24 -35 -30 0 -37 9 -25
31 12 23 32 24 49 4z"/>
<path d="M982 115 c0 -50 3 -76 5 -58 4 30 7 32 33 27 32 -7 50 15 50 61 0 46
-17 65 -55 62 l-35 -2 2 -90z m70 60 c15 -34 0 -80 -27 -80 -26 0 -40 42 -26
78 13 34 38 35 53 2z"/>
<path d="M1102 140 c0 -36 3 -49 5 -30 6 61 13 80 28 80 8 0 15 4 15 10 0 5
-11 9 -25 8 -24 -2 -25 -5 -23 -68z"/>
<path d="M1173 145 c0 -38 2 -53 4 -32 2 20 2 52 0 70 -2 17 -4 1 -4 -38z"/>
<path d="M1221 196 c-18 -22 -7 -45 29 -57 16 -6 30 -17 30 -25 0 -23 -29 -28
-50 -9 -21 19 -28 7 -8 -13 19 -19 56 -14 69 10 10 18 8 24 -11 40 -12 10 -28
18 -36 18 -19 0 -18 29 1 36 8 4 23 0 32 -7 14 -12 16 -12 11 1 -6 21 -52 24
-67 6z"/>
<path d="M1332 198 c-7 -7 -12 -30 -12 -53 0 -23 5 -46 12 -53 15 -15 51 -15
66 0 19 19 14 33 -6 15 -24 -22 -39 -21 -52 2 -15 29 -13 31 30 31 35 0 40 3
40 23 0 29 -18 47 -45 47 -12 0 -26 -5 -33 -12z m57 -17 c12 -22 5 -31 -24
-31 -29 0 -36 9 -24 31 13 24 35 24 48 0z"/>
<path d="M1670 191 c-24 -46 -5 -111 33 -111 24 0 47 17 47 34 0 5 -8 2 -18
-7 -24 -22 -39 -21 -52 2 -15 29 -13 31 30 31 35 0 40 3 40 23 0 13 -5 28 -12
35 -18 18 -56 14 -68 -7z m60 -6 c15 -19 5 -35 -24 -35 -30 0 -37 9 -25 31 12
23 32 24 49 4z"/>
<path d="M1780 143 c0 -36 4 -63 10 -63 6 0 10 24 10 54 0 40 4 55 16 60 27
10 34 -3 34 -60 0 -30 5 -54 10 -54 13 0 13 86 0 111 -8 14 -20 18 -45 16
l-35 -2 0 -62z"/>
<path d="M1909 194 c-7 -9 -13 -31 -13 -49 0 -40 19 -65 49 -65 24 0 53 26 41
37 -3 4 -13 -2 -21 -13 -11 -15 -17 -17 -32 -8 -10 6 -19 19 -21 28 -3 13 5
16 37 16 31 0 41 4 41 16 0 48 -52 72 -81 38z m59 -22 c3 -18 -1 -22 -22 -22
-31 0 -42 16 -25 36 17 21 43 13 47 -14z"/>
<path d="M2022 140 c0 -36 3 -49 5 -30 6 61 13 80 28 80 8 0 15 4 15 10 0 5
-11 9 -25 8 -24 -2 -25 -5 -23 -68z"/>
<path d="M2097 204 c-4 -4 -7 -14 -7 -23 0 -12 3 -11 13 3 16 22 50 18 55 -7
3 -12 -5 -19 -27 -23 -38 -8 -55 -27 -46 -53 5 -17 14 -20 48 -19 l42 2 -5 61
c-5 58 -6 60 -35 63 -17 2 -34 0 -38 -4z m61 -80 c-5 -25 -35 -41 -49 -27 -18
18 -3 43 26 43 19 0 26 -5 23 -16z"/>
<path d="M2260 191 c-14 -27 -13 -84 2 -99 15 -15 51 -15 66 0 19 19 14 33 -6
15 -24 -22 -39 -21 -52 2 -15 29 -13 31 30 31 35 0 40 3 40 23 0 13 -5 28 -12
35 -18 18 -56 14 -68 -7z m60 -6 c15 -19 5 -35 -24 -35 -30 0 -37 9 -25 31 12
23 32 24 49 4z"/>
<path d="M2554 150 l1 -65 38 -1 37 -1 -2 66 c-2 62 -2 63 -5 14 -7 -95 -59
-95 -66 0 -3 42 -4 40 -3 -13z"/>
<path d="M2877 204 c-4 -4 -7 -14 -7 -23 0 -11 3 -10 14 5 12 15 19 17 32 8
30 -18 28 -34 -5 -40 -36 -8 -54 -26 -49 -51 3 -14 13 -18 46 -18 l43 -1 -3
61 c-3 59 -4 60 -33 63 -17 2 -34 0 -38 -4z m63 -70 c0 -18 -24 -44 -40 -44
-20 0 -28 29 -13 43 8 8 53 9 53 1z"/>
<path d="M3040 145 c0 -37 4 -65 10 -65 6 0 10 28 10 65 0 37 -4 65 -10 65 -6
0 -10 -28 -10 -65z"/>
<path d="M3091 140 l1 -65 8 54 c5 29 13 58 19 64 19 19 40 -12 44 -66 l3 -52
2 51 c2 51 21 82 42 69 5 -3 10 -31 10 -61 0 -30 5 -54 10 -54 13 0 13 86 0
110 -8 15 -21 18 -75 17 l-65 -2 1 -65z"/>
<path d="M3282 202 c-18 -12 -26 -75 -12 -101 15 -29 73 -26 78 4 l4 20 -16
-20 c-12 -16 -18 -18 -33 -9 -10 6 -19 19 -21 28 -3 13 5 16 37 16 45 0 51 11
25 48 -16 23 -39 28 -62 14z m46 -14 c21 -21 13 -38 -18 -38 -31 0 -39 17 -18
38 15 15 21 15 36 0z"/>
<path d="M3392 140 c2 -62 2 -62 5 -13 7 96 61 95 65 -1 l1 -51 4 44 c7 74 -2
92 -42 89 l-35 -2 2 -66z"/>
</g>
</svg>
